<?xml version="1.0" standalone="no"?>
<!DOCTYPE svg PUBLIC "-//W3C//DTD SVG 20010904//EN"
 "http://www.w3.org/TR/2001/REC-SVG-20010904/DTD/svg10.dtd">
<svg version="1.0" xmlns="http://www.w3.org/2000/svg"
 width="1024.000000pt" height="1024.000000pt" viewBox="0 0 1024.000000 1024.000000"
 preserveAspectRatio="xMidYMid meet">

<g transform="translate(0.000000,1024.000000) scale(0.100000,-0.100000)"
fill="#000000" stroke="none">
<path d="M4579 9481 c-30 -4 -89 -18 -130 -31 -64 -19 -99 -23 -254 -24 -150
-2 -190 -6 -241 -23 -103 -34 -202 -93 -280 -166 -70 -65 -174 -205 -174 -234
0 -7 -5 -13 -10 -13 -10 0 -9 11 12 95 16 63 68 154 121 208 l48 50 -32 -7
c-60 -12 -197 -85 -272 -146 -133 -106 -224 -250 -269 -421 -17 -65 -22 -112
-21 -209 0 -150 18 -250 75 -418 l42 -124 -19 -34 c-22 -36 -73 -104 -234
-307 -161 -203 -279 -365 -305 -416 -39 -76 -48 -124 -91 -476 -23 -188 -44
-284 -70 -331 -23 -39 -67 -82 -154 -152 l-41 -33 0 -100 c0 -55 4 -109 10
-119 5 -10 70 -63 144 -119 73 -55 145 -114 159 -131 15 -17 36 -63 47 -103
12 -40 27 -90 33 -112 12 -39 11 -43 -60 -194 -40 -85 -71 -156 -69 -158 5 -6
118 161 297 437 82 128 58 115 195 101 226 -24 307 -52 388 -134 53 -55 124
-177 146 -254 12 -38 23 -49 142 -128 72 -48 132 -85 134 -82 2 2 -12 22 -32
45 -38 45 -38 47 -2 33 13 -4 40 -11 61 -15 l38 -7 -80 101 c-122 152 -133
136 97 144 281 9 395 17 385 27 -5 5 -45 32 -88 59 -43 27 -72 51 -64 53 8 2
44 14 80 26 l66 22 54 -21 c88 -33 378 -104 388 -94 7 7 -30 43 -67 66 -42 26
-37 29 91 53 53 10 97 21 97 25 0 3 -34 25 -76 49 -175 100 -371 239 -524 371
-116 100 -184 145 -258 172 -80 28 -208 34 -302 14 -41 -9 -78 -16 -81 -16 -4
0 -10 29 -14 65 -3 36 -11 65 -16 65 -5 0 -75 -11 -155 -25 -263 -45 -342 -30
-396 74 -23 43 -28 66 -28 122 0 62 21 145 48 186 11 17 220 59 367 73 141 14
242 8 409 -25 66 -14 121 -23 123 -21 1 1 -20 38 -48 82 -28 43 -70 118 -95
166 -32 65 -50 89 -67 92 -12 3 -173 21 -357 42 -184 20 -339 40 -343 44 -5 5
34 124 87 266 183 491 168 457 207 476 43 22 333 111 524 163 102 27 166 51
235 88 261 140 356 177 452 177 40 0 436 -80 568 -115 175 -47 283 -111 376
-223 95 -115 136 -236 159 -467 29 -291 79 -442 195 -586 68 -85 146 -150 274
-229 203 -124 261 -165 331 -232 l70 -68 -60 6 c-264 24 -395 65 -539 168
-139 99 -261 282 -341 511 -7 19 -8 19 -17 -5 -5 -14 -25 -90 -44 -170 -40
-169 -67 -232 -119 -285 -45 -44 -130 -86 -191 -93 -24 -2 -44 -8 -44 -13 0
-9 157 -107 410 -254 251 -146 259 -152 264 -178 3 -12 17 -130 31 -262 15
-132 30 -278 36 -325 5 -47 12 -118 15 -157 4 -40 9 -73 11 -73 6 0 293 121
408 172 124 55 165 80 275 166 151 119 247 155 352 133 234 -48 339 -258 282
-562 -51 -280 -172 -532 -318 -667 -93 -86 -312 -206 -431 -237 -127 -32 -294
-13 -374 45 -54 38 -53 63 -10 -388 12 -128 25 -231 29 -230 4 2 35 37 70 78
106 126 270 281 380 361 112 82 209 144 214 138 2 -2 16 -112 30 -244 14 -132
29 -258 32 -281 l6 -40 -169 -89 c-493 -258 -786 -412 -1047 -550 -60 -31
-105 -51 -100 -44 4 8 28 46 54 84 115 173 265 458 299 570 21 67 53 227 47
233 -2 1 -19 -31 -39 -71 -67 -142 -154 -248 -272 -333 -63 -44 -228 -130
-430 -222 -60 -27 -139 -64 -175 -80 l-65 -31 -35 22 c-19 12 -86 57 -149 101
-113 79 -130 84 -131 37 0 -8 -14 -61 -31 -120 -51 -176 -89 -227 -199 -266
-63 -23 -194 -45 -264 -45 l-59 0 6 38 c3 20 18 91 31 157 18 83 26 151 26
221 0 100 -23 271 -39 287 -4 4 -11 -26 -14 -67 -8 -96 -34 -207 -60 -266
l-21 -45 -7 90 c-8 106 -98 720 -110 752 -4 12 -32 37 -61 56 -74 47 -330 192
-470 266 -65 34 -118 64 -118 65 0 9 211 136 226 136 10 0 97 -80 204 -187
155 -157 212 -224 349 -408 190 -255 170 -229 175 -224 6 6 -64 270 -131 491
l-36 117 -357 355 c-196 196 -362 356 -368 356 -6 0 19 -61 55 -135 53 -108
68 -148 71 -193 4 -52 1 -62 -23 -90 -41 -49 -84 -44 -241 24 -301 130 -565
212 -736 230 l-67 7 -15 -38 c-24 -57 -20 -89 16 -132 51 -59 138 -139 195
-180 29 -21 52 -40 52 -43 0 -3 -48 -28 -107 -56 -136 -65 -207 -119 -357
-269 -131 -131 -184 -201 -222 -297 -44 -107 -53 -210 -53 -590 0 -192 2 -348
4 -348 5 0 338 187 498 281 67 39 148 84 180 100 l58 29 0 -129 c0 -97 -5
-153 -21 -218 -66 -277 53 -457 368 -556 152 -48 277 -69 442 -72 l154 -3 39
-74 c39 -73 204 -373 239 -436 11 -18 19 -39 19 -45 0 -12 -310 -327 -321
-327 -4 0 -5 19 -3 43 3 23 13 131 24 240 26 257 27 252 -15 176 -108 -197
-127 -241 -114 -265 8 -16 9 -27 2 -36 -28 -34 -593 -1026 -593 -1040 0 -5
508 -8 1128 -8 l1128 0 45 28 c160 101 895 486 2622 1375 53 27 97 51 97 54 0
2 -24 47 -53 101 -191 348 -544 998 -602 1109 l-38 72 22 88 c27 108 118 433
131 467 9 25 17 35 103 135 139 160 345 529 465 831 129 326 224 698 277 1095
22 162 31 531 16 676 -32 311 -133 595 -295 829 -91 131 -101 152 -157 322
-83 252 -158 385 -301 534 -106 110 -187 171 -318 238 -129 66 -238 105 -395
141 -137 31 -172 49 -271 138 -142 127 -240 193 -366 245 -149 62 -217 73
-503 81 -291 9 -270 4 -525 113 -182 79 -362 110 -511 89z m194 -186 c37 -8
118 -32 178 -55 133 -48 241 -76 332 -85 37 -4 69 -11 72 -15 5 -8 -121 -28
-200 -33 l-40 -2 49 -22 c79 -37 124 -46 266 -52 l135 -6 -48 -29 c-169 -101
-337 -131 -588 -105 -169 17 -333 -12 -442 -78 -32 -19 -61 -33 -64 -30 -7 8
56 89 93 120 47 39 135 85 189 98 70 17 75 26 17 34 -53 7 -140 0 -206 -17
-21 -5 -40 -7 -42 -5 -3 2 18 19 46 37 70 45 161 71 249 72 40 0 69 3 65 7
-22 19 -100 41 -179 51 -203 25 -412 -47 -534 -186 -47 -54 -54 -39 -17 34
105 206 400 324 669 267z m-904 -477 c23 -101 37 -177 44 -248 5 -45 5 -45
-11 -20 -57 84 -167 220 -175 217 -14 -4 -35 -64 -36 -102 -2 -46 -21 -9 -21
40 0 74 50 149 125 188 17 9 35 16 41 17 6 0 21 -42 33 -92z m2311 -14 c205
-30 611 -149 765 -224 126 -61 202 -116 311 -225 89 -88 184 -210 184 -237 0
-5 -15 -1 -33 11 -49 30 -171 90 -176 85 -6 -6 72 -164 129 -261 45 -76 81
-127 149 -206 15 -17 14 -18 -14 -12 -147 34 -309 94 -389 145 -25 16 -46 26
-46 22 0 -9 69 -138 111 -207 16 -27 -27 11 -126 111 -259 261 -449 376 -760
460 -134 35 -133 39 20 53 226 20 481 -33 603 -125 18 -14 35 -24 38 -21 9 9
-86 124 -173 208 -133 130 -344 260 -538 332 -90 33 -259 84 -308 93 -20 3
-39 9 -41 13 -7 11 180 1 294 -15z m155 -731 c109 -34 256 -111 357 -187 46
-35 153 -136 239 -224 184 -192 264 -258 384 -317 84 -41 223 -85 269 -85 14
0 17 -3 10 -10 -17 -17 -268 -24 -381 -11 -119 14 -277 51 -347 81 -27 11 -52
18 -55 14 -8 -8 97 -104 174 -159 33 -24 96 -62 140 -85 44 -23 81 -43 83 -45
12 -11 -196 42 -255 65 -204 82 -493 290 -729 525 -139 138 -325 337 -321 342
2 1 36 -14 77 -34 41 -19 161 -69 265 -110 193 -75 302 -129 388 -189 26 -19
47 -32 47 -29 0 11 -85 143 -118 185 -105 131 -184 199 -312 269 -70 39 -72
41 -35 35 22 -4 76 -18 120 -31z m-396 -668 c33 -49 143 -150 209 -193 124
-79 237 -118 527 -183 121 -27 245 -56 275 -65 62 -18 280 -103 294 -115 8 -7
-8 -10 -139 -28 -55 -7 -58 -9 -35 -18 42 -18 354 -174 362 -181 4 -4 -59 -6
-140 -4 -81 2 -192 -1 -247 -6 -208 -18 -402 21 -608 124 -106 54 -174 99
-240 163 -143 135 -223 278 -292 519 -9 33 7 27 34 -13z m-1855 -1593 l59 -27
-34 -34 c-52 -53 -130 -84 -218 -88 l-76 -4 39 15 c58 22 108 66 135 119 13
26 26 47 30 47 3 -1 33 -13 65 -28z m-1087 -1234 c-119 -274 -149 -360 -167
-483 -6 -44 -14 -96 -17 -115 l-6 -35 -9 30 c-5 17 -12 71 -15 122 -13 201 52
403 151 467 43 28 72 34 63 14z m-240 -141 c-6 -84 -45 -210 -83 -267 -15 -22
-29 -39 -31 -37 -5 5 32 166 53 232 21 65 55 145 62 145 3 0 2 -33 -1 -73z
m-67 -34 c-39 -119 -128 -272 -191 -328 -19 -17 -18 -12 10 42 17 34 42 93 56
130 42 110 134 262 143 235 2 -7 -6 -42 -18 -79z m340 7 c26 59 29 62 35 38 9
-36 3 -56 -55 -173 -27 -55 -52 -118 -55 -140 -5 -31 12 -4 71 115 42 85 80
166 84 180 6 22 8 19 15 -22 9 -58 -1 -90 -76 -235 -54 -106 -89 -215 -89
-279 0 -38 -14 -21 -36 46 -15 42 -19 84 -19 180 1 133 9 175 63 298 l27 64 3
-69 3 -68 29 65z m-464 -101 c-32 -69 -105 -192 -106 -178 0 16 65 159 98 213
47 78 51 59 8 -35z m620 9 c-3 -46 -16 -117 -27 -158 -15 -54 -22 -118 -26
-225 l-6 -149 -23 46 c-55 107 -49 246 17 428 23 62 60 140 67 140 3 0 2 -37
-2 -82z m89 -50 c-22 -103 -31 -285 -18 -363 6 -33 9 -20 19 80 13 129 51 282
67 266 5 -5 5 -36 -2 -79 -16 -102 -13 -229 8 -372 10 -69 17 -126 16 -128 -2
-2 -22 20 -45 49 -109 138 -134 271 -85 462 14 54 25 100 25 102 0 3 5 5 10 5
6 0 8 -10 5 -22z m126 -103 c-2 -41 2 -65 8 -65 6 0 11 8 11 19 0 22 21 84 26
78 2 -2 11 -57 19 -122 16 -130 21 -152 68 -272 31 -81 54 -111 43 -55 -12 57
-37 274 -32 279 6 7 41 -63 56 -114 7 -24 17 -43 23 -43 5 0 7 7 4 15 -4 8 -9
60 -12 117 l-6 103 30 -60 c17 -33 31 -68 31 -77 0 -10 4 -18 8 -18 4 0 6 46
4 103 -2 69 0 97 7 87 5 -9 33 -85 61 -170 77 -228 85 -234 34 -23 -32 131
-30 167 7 97 53 -98 77 -214 94 -454 7 -107 10 -108 -64 16 -23 40 -62 116
-86 170 l-45 99 0 -80 c0 -44 7 -105 15 -135 8 -30 15 -57 14 -60 0 -3 -23 20
-51 50 -27 30 -47 46 -43 35 8 -24 35 -165 35 -183 0 -44 -160 145 -219 258
-59 115 -81 189 -81 275 0 72 27 212 38 200 3 -3 4 -34 3 -70z m3603 -535 c31
-49 56 -94 56 -99 0 -10 -225 -200 -605 -511 -110 -90 -315 -259 -455 -375
-140 -116 -329 -271 -419 -345 -90 -74 -290 -240 -445 -368 l-281 -233 -315
-155 c-293 -144 -315 -154 -328 -137 -23 31 -265 506 -270 529 -3 16 18 41 91
108 172 159 165 155 742 453 534 276 1015 540 1455 801 289 171 606 360 654
391 28 17 53 31 57 31 4 0 33 -40 63 -90z m-3786 -445 c124 -29 218 -89 400
-254 56 -50 78 -77 70 -82 -7 -4 -57 -15 -112 -24 -131 -24 -226 -16 -384 29
-155 45 -212 70 -248 107 -25 26 -29 39 -29 84 0 61 24 96 85 123 75 33 131
37 218 17z m647 -173 c50 -37 89 -72 88 -78 -1 -10 -196 -74 -225 -74 -19 0
-19 -2 8 135 8 39 14 73 14 78 0 19 33 2 115 -61z"/>
<path d="M6811 5709 c-36 -14 -78 -45 -128 -92 -86 -82 -231 -246 -262 -297
-32 -54 -28 -114 14 -193 46 -87 48 -144 5 -209 -17 -26 -46 -58 -65 -72 -36
-27 -158 -89 -196 -99 -17 -5 -20 -11 -16 -29 4 -13 9 -61 13 -107 l7 -84 60
7 c33 3 75 6 93 6 19 0 34 3 34 8 -1 4 -19 21 -40 37 -21 17 -39 35 -40 41 0
6 37 36 83 68 45 31 100 70 122 86 37 28 43 29 85 19 67 -16 138 -6 211 28 83
39 134 83 166 146 21 43 24 61 21 118 -3 56 -9 76 -34 111 -44 64 -97 89 -206
98 -86 7 -93 9 -120 39 -19 22 -28 42 -28 66 0 19 2 35 5 35 2 0 12 -16 21
-35 30 -64 101 -82 173 -46 28 15 46 36 70 81 l33 62 40 -5 c74 -10 105 -61
148 -247 31 -133 29 -131 52 -80 59 134 76 315 37 400 -25 56 -71 105 -124
132 -59 31 -165 34 -234 7z"/>
<path d="M4967 5028 c-155 -51 -240 -68 -367 -75 -131 -7 -362 19 -472 53 -10
3 -18 1 -18 -4 0 -12 205 -257 512 -612 334 -386 368 -424 379 -429 7 -2 9 16
5 50 -3 30 -11 166 -17 302 -9 188 -15 247 -24 243 -27 -10 -148 -46 -155 -46
-7 0 26 65 212 418 38 73 68 135 66 136 -1 2 -56 -15 -121 -36z"/>
<path d="M6975 4779 c-16 -5 -65 -12 -107 -15 -62 -6 -81 -11 -98 -29 -29 -31
-113 -199 -101 -203 28 -9 224 112 281 175 81 87 82 89 25 72z"/>
</g>
</svg>
